<?xml version="1.0" encoding="UTF-8"?>
<svg id="Layer_1" data-name="Layer 1" xmlns="http://www.w3.org/2000/svg" viewBox="0 0 397.04 510.98">
  <defs>
    <style>
      .cls-1 {
        fill: #fff;
      }
    </style>
  </defs>
  <g id="_0TPnGm.tif" data-name="0TPnGm.tif">
    <g>
      <path class="cls-1" d="M91.81,510.98c-19.68-6.62-26.4-23.58-15.19-41.64,14.94-24.09,37.55-46.61,52.85-70.88-5.48-71.82-20.17-142.65-31.22-213.79L29.72,124.48C17.76,91.64,9.48,57.2.05,23.43-1.03,5.99,15.69-5.6,31.64,2.79c7.96,4.19,8.89,9.53,11.56,17.38,8.86,26.15,14.11,54.37,23.24,80.54l51.02,43.85,68.62-9.83,61.39,2.51,14.48-29.49-15.28-10.8c-21.56,9.5-43.94-13.18-31.36-33.79,13.83-22.67,47.44-9.4,44.29,16.46l13.75,8.18c7.77-23.71,43.32-15.58,40.91,9.49-.59,6.13-5.06,10.75-6.55,16.49,7.36,7.34,31.26,15.87,24.37,29.29-8.05,15.68-21.93-2.97-28.32-5.35-2.01-.75-1.51,1.23-1.47,2.46l47.92,241c14.79-.47,36.32-4.68,46.83,8.04v4.99c-11.86,14.65-33.61,21.38-51.66,24.66-9.69,1.76-54.11,6.84-56.1-7.25-1.85-13.16,30.81-22.65,39.66-26.83l-44.63-224.12-6.15,10.3c-9.63,13.02-19.68,9.08-33.2,8.61-11.14-.39-22.32-.55-33.45-.95l19.25,116.96c14.31,22.1,36.04,41.73,50.4,63.35,10.02,15.09,3.09,30.86-.14,47.43-5.73,29.44-12.4,58.76-18.71,88.07-3.39,8.84-10.09,13.71-18.89,16.53h-10.97c-11.62-4.5-19.12-12.56-19.94-25.45l20.78-103.56-49.74-62.09-10.97.99,10.03,82.87c.12,8.62-3.76,14-8.2,20.72-17.31,26.24-40.01,50.8-57.7,77-3.88,4.87-9.29,7.38-14.93,9.51h-9.97Z"/>
      <path class="cls-1" d="M137.53,38.15c60.04-1.81,59.59,88.93,1.66,88.58s-58-86.88-1.66-88.58Z"/>
    </g>
  </g>
</svg>